<?xml version="1.0" encoding="iso-8859-1"?>
<!-- Generator: Adobe Illustrator 19.0.0, SVG Export Plug-In . SVG Version: 6.00 Build 0)  -->
<svg version="1.1" id="Capa_1" xmlns="http://www.w3.org/2000/svg" xmlns:xlink="http://www.w3.org/1999/xlink" x="0px" y="0px"
	 viewBox="0 0 512 512" style="enable-background:new 0 0 512 512;" xml:space="preserve">
<g>
	<g>
		<path d="M431,172v35h-15.531C408.831,124.833,339.848,60,256,60S103.169,124.833,96.531,207H81v-35H0v280h81v-35h28.646
			l21.819,21.819c8.772,8.772,20.296,13.159,31.819,13.159s23.047-4.387,31.819-13.159c6.936-6.935,11.118-15.592,12.571-24.606
			c20.047-5.247,37.022-17.549,48.338-33.978c2.163,3.133,4.539,6.139,7.134,8.988c11.135,12.225,25.438,20.82,41.175,24.961
			c1.448,9.025,5.632,17.693,12.575,24.635c8.772,8.772,20.296,13.159,31.819,13.159s23.047-4.387,31.819-13.159L402.354,417H431v35
			h81V172H431z M51,422H30V202h21V422z M241,332c0,24.524-16.068,45.591-38.715,52.561c-1.929-3.355-4.317-6.516-7.181-9.38
			l-63.948-63.949l-21.213,21.213l63.948,63.949c5.849,5.849,5.849,15.364,0,21.213c-5.85,5.848-15.363,5.848-21.213,0
			L88.73,353.659L81,361.388V237h105c30.327,0,55,24.673,55,55V332z M256,243.857C240.655,221.615,215.007,207,186,207h-59.352
			C133.191,141.398,188.705,90,256,90s122.809,51.398,129.352,117H326C296.993,207,271.345,221.615,256,243.857z M431,361.388
			l-7.729-7.729l-63.949,63.947c-5.85,5.848-15.363,5.848-21.213,0c-5.849-5.849-5.849-15.364,0-21.213l63.948-63.949
			l-21.213-21.213l-63.948,63.949c-2.865,2.865-5.253,6.027-7.182,9.382C287.033,377.623,271,356.652,271,332v-40
			c0-30.327,24.673-55,55-55h105V361.388z M482,422h-21V202h21V422z"/>
	</g>
</g>
<g>
	<g>
		<polygon points="273.213,138 296.606,114.606 275.394,93.394 200.787,168 245.787,168 215.394,198.394 236.606,219.606 
			318.213,138 		"/>
	</g>
</g>
<g>
</g>
<g>
</g>
<g>
</g>
<g>
</g>
<g>
</g>
<g>
</g>
<g>
</g>
<g>
</g>
<g>
</g>
<g>
</g>
<g>
</g>
<g>
</g>
<g>
</g>
<g>
</g>
<g>
</g>
</svg>
