<?xml version="1.0" encoding="iso-8859-1"?>
<!-- Generator: Adobe Illustrator 19.0.0, SVG Export Plug-In . SVG Version: 6.00 Build 0)  -->
<svg version="1.1" id="Layer_1" xmlns="http://www.w3.org/2000/svg" xmlns:xlink="http://www.w3.org/1999/xlink" x="0px" y="0px"
	 viewBox="0 0 496.158 496.158" style="enable-background:new 0 0 496.158 496.158;" xml:space="preserve">
<path style="fill:#4ABC96;" d="M248.082,0.003C111.07,0.003,0,111.063,0,248.085c0,137.001,111.07,248.07,248.082,248.07
	c137.006,0,248.076-111.069,248.076-248.07C496.158,111.062,385.088,0.003,248.082,0.003z"/>
<path style="fill:#357180;" d="M412.354,127.016H83.804c-2.529,0-4.592,2.061-4.592,4.59v232.942c0,2.542,2.063,4.595,4.592,4.595
	h328.551c2.533,0,4.592-2.053,4.592-4.595V131.606C416.946,129.076,414.888,127.016,412.354,127.016z"/>
<rect x="238.989" y="127.019" style="fill:#27636D;" width="18.586" height="242.13"/>
<rect x="91.629" y="138.809" style="fill:#D7D7BF;" width="312.89" height="218.53"/>
<rect x="239.329" y="138.809" style="fill:#C5C3AE;" width="17.907" height="218.38"/>
<g>
	<polygon style="fill:#E7E7D6;" points="97.837,131.687 97.837,350.856 248.079,357.347 248.079,138.812 	"/>
	<polygon style="fill:#E7E7D6;" points="248.079,138.812 248.079,357.347 398.321,350.856 398.321,131.687 	"/>
</g>
<rect x="247.269" y="143.939" style="fill:#DCDDD8;" width="2.02" height="213.25"/>
<g>
	<path style="fill:#B9B9BA;" d="M231.358,164.668l-115.996-3.707c-2.708-0.089-4.898,2.123-4.898,4.94
		c0,2.814,2.19,5.164,4.898,5.252l115.996,3.707c2.701,0.088,4.895-2.123,4.895-4.937
		C236.253,167.106,234.059,164.757,231.358,164.668z"/>
	<path style="fill:#B9B9BA;" d="M231.358,185.542l-115.996-3.707c-2.708-0.088-4.898,2.123-4.898,4.938
		c0,2.814,2.19,5.167,4.898,5.255l115.996,3.707c2.701,0.088,4.895-2.126,4.895-4.941
		C236.253,187.98,234.059,185.631,231.358,185.542z"/>
	<path style="fill:#B9B9BA;" d="M231.358,205.827l-115.996-3.706c-2.708-0.088-4.898,2.122-4.898,4.936
		c0,2.819,2.19,5.168,4.898,5.256l115.996,3.707c2.701,0.089,4.895-2.122,4.895-4.94
		C236.253,208.265,234.059,205.916,231.358,205.827z"/>
	<path style="fill:#B9B9BA;" d="M231.358,226.701l-115.996-3.706c-2.708-0.088-4.898,2.119-4.898,4.933
		c0,2.818,2.19,5.171,4.898,5.26l115.996,3.706c2.701,0.088,4.895-2.126,4.895-4.944
		C236.253,229.135,234.059,226.79,231.358,226.701z"/>
	<path style="fill:#B9B9BA;" d="M231.358,247.871l-115.996-3.707c-2.708-0.088-4.898,2.119-4.898,4.933
		c0,2.811,2.19,5.164,4.898,5.252l115.996,3.707c2.701,0.089,4.895-2.126,4.895-4.937
		C236.253,250.305,234.059,247.959,231.358,247.871z"/>
	<path style="fill:#B9B9BA;" d="M231.358,268.738l-115.996-3.707c-2.708-0.089-4.898,2.126-4.898,4.937
		c0,2.814,2.19,5.163,4.898,5.251l115.996,3.707c2.701,0.088,4.895-2.123,4.895-4.937
		C236.253,271.179,234.059,268.825,231.358,268.738z"/>
	<path style="fill:#B9B9BA;" d="M231.358,289.027l-115.996-3.707c-2.708-0.089-4.898,2.122-4.898,4.932
		c0,2.815,2.19,5.168,4.898,5.256l115.996,3.707c2.701,0.088,4.895-2.126,4.895-4.941
		C236.253,291.465,234.059,289.116,231.358,289.027z"/>
	<path style="fill:#B9B9BA;" d="M231.358,309.897l-115.996-3.707c-2.708-0.088-4.898,2.127-4.898,4.934
		c0,2.818,2.19,5.167,4.898,5.256l115.996,3.706c2.701,0.089,4.895-2.122,4.895-4.94
		C236.253,312.338,234.059,309.985,231.358,309.897z"/>
	<path style="fill:#B9B9BA;" d="M381.627,160.962l-116,3.707c-2.703,0.088-4.897,2.438-4.897,5.256c0,2.814,2.194,5.025,4.897,4.937
		l116-3.707c2.7-0.088,4.898-2.438,4.898-5.252C386.525,163.084,384.327,160.873,381.627,160.962z"/>
	<path style="fill:#B9B9BA;" d="M381.627,181.835l-116,3.707c-2.703,0.088-4.897,2.438-4.897,5.251c0,2.815,2.194,5.029,4.897,4.941
		l116-3.707c2.7-0.088,4.898-2.441,4.898-5.255C386.525,183.958,384.327,181.747,381.627,181.835z"/>
	<path style="fill:#B9B9BA;" d="M381.627,202.121l-116,3.706c-2.703,0.089-4.897,2.438-4.897,5.253c0,2.818,2.194,5.029,4.897,4.94
		l116-3.707c2.7-0.088,4.898-2.438,4.898-5.256C386.525,204.244,384.327,202.033,381.627,202.121z"/>
	<path style="fill:#B9B9BA;" d="M381.627,222.995l-116,3.706c-2.703,0.089-4.897,2.434-4.897,5.249c0,2.818,2.194,5.033,4.897,4.944
		l116-3.706c2.7-0.088,4.898-2.442,4.898-5.26C386.525,225.114,384.327,222.907,381.627,222.995z"/>
	<path style="fill:#B9B9BA;" d="M381.627,244.165l-116,3.707c-2.703,0.088-4.897,2.433-4.897,5.248c0,2.811,2.194,5.026,4.897,4.937
		l116-3.707c2.7-0.089,4.898-2.441,4.898-5.252C386.525,246.284,384.327,244.077,381.627,244.165z"/>
	<path style="fill:#B9B9BA;" d="M381.627,265.031l-116,3.707c-2.703,0.087-4.897,2.441-4.897,5.252c0,2.814,2.194,5.025,4.897,4.937
		l116-3.707c2.7-0.088,4.898-2.438,4.898-5.251C386.525,267.157,384.327,264.942,381.627,265.031z"/>
	<path style="fill:#B9B9BA;" d="M381.627,285.321l-116,3.707c-2.703,0.089-4.897,2.438-4.897,5.248c0,2.815,2.194,5.029,4.897,4.941
		l116-3.707c2.7-0.088,4.898-2.441,4.898-5.256C386.525,287.442,384.327,285.232,381.627,285.321z"/>
	<path style="fill:#B9B9BA;" d="M381.627,306.19l-116,3.707c-2.703,0.088-4.897,2.441-4.897,5.248c0,2.818,2.194,5.029,4.897,4.94
		l116-3.706c2.7-0.088,4.898-2.438,4.898-5.256C386.525,308.317,384.327,306.102,381.627,306.19z"/>
</g>
<g>
	<path style="fill:#9B7842;" d="M189.301,260.767c-4.199-1.369-4.891-8.254-7.391-9.39c-2.502-1.134-4.133,0.042-5.988-0.149
		c-20.51-2.113-24.971-20.537-45.738-22.386l-14.779,26.291c11.17,10.077,33.953,8.347,45.256,18.286
		c1.904,1.674,2.006,5.462,4.623,6.127c3.631,0.925,7.094-0.3,9.236-1.878c0,0,224.402,96.289,226.402,96.057
		c2-0.236,5.926-5.167,6.158-9.391C406.767,359.316,189.301,260.767,189.301,260.767z"/>
	<path style="fill:#AF8B5A;" d="M167.131,268.278c5.004-6.885,6.158-9.938,11.086-15.023
		C171.187,254.874,170.564,263.003,167.131,268.278z"/>
	<path style="fill:#A57C46;" d="M85.719,164.418c-9.701,4.434-2.031,27.297-5.545,31.926L56.16,245.17
		c0,0-8.924,4.208-15.641,10.923c-11.279,11.28,5.424,30.068,21.406,38.197c19.768,10.054,47.053,13.005,50.645-0.638
		c1.594-6.054,0.641-13.196-0.988-20.313l26.037-57.329c5.479-6.951,17.35-8.388,19.113-19.116
		C156.715,169.277,102.15,151.244,85.719,164.418z"/>
	<path style="fill:#9B7842;" d="M80.955,194.662L56.16,245.169c0,0,16.682,3.126,29.721,9.304
		c20.088,9.519,25.701,18.865,25.701,18.865l26.037-57.329C131.432,204.537,94.084,188.347,80.955,194.662z"/>
</g>
<g>
</g>
<g>
</g>
<g>
</g>
<g>
</g>
<g>
</g>
<g>
</g>
<g>
</g>
<g>
</g>
<g>
</g>
<g>
</g>
<g>
</g>
<g>
</g>
<g>
</g>
<g>
</g>
<g>
</g>
</svg>
