<?xml version="1.0" encoding="iso-8859-1"?>
<!-- Generator: Adobe Illustrator 18.0.0, SVG Export Plug-In . SVG Version: 6.00 Build 0)  -->
<!DOCTYPE svg PUBLIC "-//W3C//DTD SVG 1.1//EN" "http://www.w3.org/Graphics/SVG/1.1/DTD/svg11.dtd">
<svg version="1.1" id="Capa_1" xmlns="http://www.w3.org/2000/svg" xmlns:xlink="http://www.w3.org/1999/xlink" x="0px" y="0px"
	 viewBox="0 0 304.338 304.338" style="enable-background:new 0 0 304.338 304.338;" xml:space="preserve">
<g>
	<path d="M132.958,172.496h-3.926c4.236-2.622,7.067-7.296,7.067-12.644c0-8.215-6.66-14.875-14.875-14.875l-48.895-0.149
		c-3.366,0-6.056-2.954-5.613-6.407c0.366-2.854,2.933-4.916,5.81-4.916h13.979c3.066,0,4.51-3.787,2.223-5.829l-15.963-14.251
		c-5.932-5.296-14.978-4.987-20.538,0.693l-39.864,40.744C4.711,162.977,0,174.776,0,184.64v30.59
		c0,21.878,17.079,42.054,43.386,42.054h65.8c7.877,0,14.688-5.961,15.232-13.819c0.401-5.784-2.518-10.907-7.03-13.7h4.442
		c7.877,0,14.688-5.961,15.232-13.819c0.401-5.784-2.518-10.907-7.03-13.7h3.348c8.453,0,15.261-7.053,14.858-15.595
		C147.86,178.651,140.968,172.496,132.958,172.496z"/>
	<path d="M291.975,154.863l-39.864-40.744c-5.561-5.684-14.606-5.988-20.538-0.693l-15.963,14.251
		c-2.287,2.042-0.843,5.829,2.223,5.829h13.979c2.877,0,5.444,2.063,5.81,4.916c0.443,3.453-2.247,6.407-5.613,6.407l-48.896,0.149
		c-8.215,0-14.875,6.66-14.875,14.875c0,5.347,2.832,10.022,7.067,12.644h-3.926c-8.009,0-14.901,6.155-15.278,14.155
		c-0.403,8.542,6.404,15.595,14.858,15.595h3.348c-4.512,2.793-7.431,7.916-7.031,13.7c0.544,7.858,7.355,13.819,15.232,13.819
		h4.443c-4.513,2.793-7.431,7.916-7.031,13.7c0.544,7.858,7.355,13.819,15.232,13.819h67.131c23.226,0,42.054-18.828,42.054-42.054
		v-30.59C304.338,174.776,299.086,162.602,291.975,154.863z"/>
	<path d="M159.669,120.489V54.555c0-4.143-3.357-7.5-7.5-7.5c-4.143,0-7.5,3.357-7.5,7.5v65.935c0,4.143,3.357,7.5,7.5,7.5
		C156.311,127.989,159.669,124.632,159.669,120.489z"/>
	<path d="M115.415,123.687c1.765,3.748,6.237,5.353,9.981,3.587c3.747-1.766,5.353-6.234,3.587-9.981l-23.061-48.935
		c-1.765-3.746-6.233-5.353-9.981-3.587c-3.747,1.766-5.353,6.234-3.587,9.981L115.415,123.687z"/>
	<path d="M178.941,127.273c3.745,1.766,8.216,0.161,9.981-3.587l23.061-48.935c1.766-3.747,0.16-8.216-3.587-9.981
		c-3.746-1.767-8.216-0.161-9.981,3.587l-23.061,48.935C173.589,121.039,175.194,125.508,178.941,127.273z"/>
</g>
<g>
</g>
<g>
</g>
<g>
</g>
<g>
</g>
<g>
</g>
<g>
</g>
<g>
</g>
<g>
</g>
<g>
</g>
<g>
</g>
<g>
</g>
<g>
</g>
<g>
</g>
<g>
</g>
<g>
</g>
</svg>
